<svg width="70" height="70" viewBox="0 0 70 70" fill="none" xmlns="http://www.w3.org/2000/svg">
<path d="M23.333 8.02087H14.583C10.9586 8.02087 8.02051 10.959 8.02051 14.5834V23.3334C8.02051 26.9577 10.9586 29.8959 14.583 29.8959H23.333C26.9574 29.8959 29.8955 26.9577 29.8955 23.3334V14.5834C29.8955 10.959 26.9574 8.02087 23.333 8.02087Z" stroke="#1B1B1B" stroke-width="5"/>
<path d="M55.417 8.02087H46.667C43.0426 8.02087 40.1045 10.959 40.1045 14.5834V23.3334C40.1045 26.9577 43.0426 29.8959 46.667 29.8959H55.417C59.0414 29.8959 61.9795 26.9577 61.9795 23.3334V14.5834C61.9795 10.959 59.0414 8.02087 55.417 8.02087Z" stroke="#1B1B1B" stroke-width="5"/>
<path d="M55.417 40.1041H46.667C43.0426 40.1041 40.1045 43.0423 40.1045 46.6666V55.4166C40.1045 59.041 43.0426 61.9791 46.667 61.9791H55.417C59.0414 61.9791 61.9795 59.041 61.9795 55.4166V46.6666C61.9795 43.0423 59.0414 40.1041 55.417 40.1041Z" stroke="#1B1B1B" stroke-width="5"/>
<path d="M23.333 40.1041H14.583C10.9586 40.1041 8.02051 43.0423 8.02051 46.6666V55.4166C8.02051 59.041 10.9586 61.9791 14.583 61.9791H23.333C26.9574 61.9791 29.8955 59.041 29.8955 55.4166V46.6666C29.8955 43.0423 26.9574 40.1041 23.333 40.1041Z" stroke="#1B1B1B" stroke-width="5"/>
</svg>
