<svg width="70" height="70" viewBox="0 0 70 70" fill="none" xmlns="http://www.w3.org/2000/svg">
<path d="M55.4163 8.02087H14.583C10.9586 8.02087 8.02051 10.959 8.02051 14.5834V23.3334C8.02051 26.9577 10.9586 29.8959 14.583 29.8959H55.4163C59.0407 29.8959 61.9788 26.9577 61.9788 23.3334V14.5834C61.9788 10.959 59.0407 8.02087 55.4163 8.02087Z" stroke="#1B1B1B" stroke-width="1.5"/>
<path d="M55.3958 40H14.5625C10.9381 40 8 42.9381 8 46.5625V55.3125C8 58.9369 10.9381 61.875 14.5625 61.875H55.3958C59.0202 61.875 61.9583 58.9369 61.9583 55.3125V46.5625C61.9583 42.9381 59.0202 40 55.3958 40Z" stroke="#1B1B1B" stroke-width="1.5"/>
</svg>
