<svg width="46" height="45" viewBox="0 0 46 45" fill="none" xmlns="http://www.w3.org/2000/svg">
<path d="M39.5986 11.2124C33.3549 10.5937 27.0736 10.2749 20.8111 10.2749C17.0986 10.2749 13.3861 10.4624 9.67363 10.8374L5.84863 11.2124" stroke="#1B1B1B" stroke-width="1.5" stroke-linecap="round" stroke-linejoin="round"/>
<path d="M16.1611 9.31875L16.5736 6.8625C16.8736 5.08125 17.0986 3.75 20.2674 3.75H25.1799C28.3486 3.75 28.5924 5.15625 28.8736 6.88125L29.2861 9.31875" stroke="#1B1B1B" stroke-width="1.5" stroke-linecap="round" stroke-linejoin="round"/>
<path d="M35.5674 17.1376L34.3486 36.0188C34.1424 38.9626 33.9736 41.2501 28.7424 41.2501H16.7049C11.4736 41.2501 11.3049 38.9626 11.0986 36.0188L9.87988 17.1376" stroke="#1B1B1B" stroke-width="1.5" stroke-linecap="round" stroke-linejoin="round"/>
<path d="M19.5918 30.9375H25.8355" stroke="#1B1B1B" stroke-width="1.5" stroke-linecap="round" stroke-linejoin="round"/>
<path d="M18.0361 23.4375H27.4111" stroke="#1B1B1B" stroke-width="1.5" stroke-linecap="round" stroke-linejoin="round"/>
</svg>
