<svg width="70" height="70" viewBox="0 0 70 70" fill="none" xmlns="http://www.w3.org/2000/svg">
<path d="M61.25 17.4416C51.5375 16.4791 41.7667 15.9833 32.025 15.9833C26.25 15.9833 20.475 16.2749 14.7 16.8583L8.75 17.4416" stroke="#1B1B1B" stroke-width="3" stroke-linecap="round" stroke-linejoin="round"/>
<path d="M24.792 14.4959L25.4337 10.675C25.9003 7.90421 26.2503 5.83337 31.1795 5.83337H38.8212C43.7503 5.83337 44.1295 8.02087 44.567 10.7042L45.2087 14.4959" stroke="#1B1B1B" stroke-width="3" stroke-linecap="round" stroke-linejoin="round"/>
<path d="M54.9788 26.6583L53.083 56.0291C52.7622 60.6083 52.4997 64.1666 44.3622 64.1666H25.6372C17.4997 64.1666 17.2372 60.6083 16.9163 56.0291L15.0205 26.6583" stroke="#1B1B1B" stroke-width="3" stroke-linecap="round" stroke-linejoin="round"/>
<path d="M30.1279 48.125H39.8404" stroke="#1B1B1B" stroke-width="3" stroke-linecap="round" stroke-linejoin="round"/>
<path d="M27.708 36.4584H42.2913" stroke="#1B1B1B" stroke-width="3" stroke-linecap="round" stroke-linejoin="round"/>
</svg>
